<svg width="22" height="22" viewBox="0 0 22 22" fill="none" xmlns="http://www.w3.org/2000/svg">
<path d="M11 2.0625C6.07148 2.0625 2.0625 6.07148 2.0625 11C2.0625 15.9285 6.07148 19.9375 11 19.9375C15.9285 19.9375 19.9375 15.9285 19.9375 11C19.9375 6.07148 15.9285 2.0625 11 2.0625ZM16.9104 6.1832C17.9738 7.48301 18.6184 9.1373 18.6334 10.9398C18.382 10.8861 15.8576 10.3748 13.3182 10.6949C13.2645 10.5639 13.2107 10.4328 13.1549 10.3018C12.9959 9.93008 12.8262 9.5584 12.6479 9.19531C15.4688 8.0416 16.7492 6.40234 16.9104 6.1832ZM11 3.37734C12.94 3.37734 14.7125 4.10566 16.0596 5.3002C15.9221 5.4957 14.7727 7.04043 12.0592 8.05879C10.8088 5.75996 9.42305 3.87363 9.21035 3.59004C9.79688 3.44824 10.3963 3.37734 11 3.37734V3.37734ZM7.75371 4.10352C7.95566 4.37852 9.31992 6.27129 10.5832 8.51855C7.0125 9.46602 3.86719 9.45312 3.52559 9.44883C4.02188 7.0791 5.61816 5.11113 7.75371 4.10352ZM3.3666 11.0107C3.3666 10.9334 3.36875 10.8539 3.3709 10.7766C3.70391 10.783 7.40352 10.8303 11.217 9.68945C11.4361 10.117 11.6445 10.551 11.8357 10.985C11.7348 11.0129 11.6338 11.043 11.535 11.0752C7.59688 12.3514 5.50215 15.8211 5.32812 16.1154C4.10996 14.7619 3.3666 12.9723 3.3666 11.0107ZM11 18.6441C9.23398 18.6441 7.60762 18.0426 6.31426 17.0328C6.45176 16.7514 7.99648 13.7672 12.302 12.2654L12.3514 12.2482C13.4234 15.0326 13.866 17.368 13.9799 18.0383C13.0381 18.4408 12.0242 18.647 11 18.6441V18.6441ZM15.2646 17.34C15.1873 16.876 14.7812 14.6416 13.7822 11.898C16.1756 11.5156 18.2768 12.143 18.5367 12.2246C18.1973 14.3473 16.9791 16.182 15.2646 17.34V17.34Z" fill="white"/>
</svg>
