<svg width="123" height="21" viewBox="0 0 123 21" fill="none" xmlns="http://www.w3.org/2000/svg">
<path fill-rule="evenodd" clip-rule="evenodd" d="M15.8443 0.498535L11.5918 11.6071L7.314 0.498535H0V20.6315H5.26358V7.32147L10.432 20.6315H12.7545L17.8947 7.32147V20.6315H23.1583V0.498535H15.8443Z" fill="#1A1A1F"/>
<path fill-rule="evenodd" clip-rule="evenodd" d="M33.8326 16.8899V15.589C33.3449 14.8952 32.2416 14.5623 31.2068 14.5623C29.9816 14.5623 28.8486 15.1079 28.8486 16.2534C28.8486 17.3988 29.9816 17.9444 31.2068 17.9444C32.2416 17.9444 33.3449 17.5822 33.8326 16.8884V16.8899ZM33.8326 20.6299V19.1808C32.9152 20.2647 31.1428 20.9922 29.2441 20.9922C26.9796 20.9922 24.1678 19.4507 24.1678 16.1903C24.1678 12.6615 26.9781 11.4867 29.2441 11.4867C31.2068 11.4867 32.9494 12.1174 33.8326 13.2056V11.7566C33.8326 10.4894 32.7353 9.61376 30.8351 9.61376C29.366 9.61376 27.897 10.1858 26.706 11.1831L24.9633 7.95203C26.8621 6.35336 29.4002 5.68896 31.6603 5.68896C35.2095 5.68896 38.549 6.9899 38.549 11.516V20.6314H33.8326V20.6299Z" fill="#1A1A1F"/>
<path fill-rule="evenodd" clip-rule="evenodd" d="M39.1869 18.7291L41.1451 15.4115C42.2484 16.3736 44.6006 17.371 46.3492 17.371C47.7543 17.371 48.3357 16.975 48.3357 16.3443C48.3357 14.5344 39.74 16.403 39.74 10.4894C39.74 7.9227 42.0045 5.68896 46.0697 5.68896C48.5796 5.68896 50.6582 6.47363 52.2507 7.6191L50.4501 10.9147C49.5609 10.0655 47.8777 9.31016 46.1054 9.31016C45.0021 9.31016 44.2691 9.73403 44.2691 10.3075C44.2691 11.9062 52.8306 10.2488 52.8306 16.2255C52.8306 18.9975 50.3564 20.9922 46.1336 20.9922C43.4736 20.9922 40.7511 20.1151 39.1869 18.7291Z" fill="#1A1A1F"/>
<path fill-rule="evenodd" clip-rule="evenodd" d="M63.7563 20.6315V12.1439C63.7563 10.3692 62.8091 9.79574 61.3044 9.79574C59.929 9.79574 59.0116 10.5467 58.4645 11.2111V20.63H53.748V0.498535H58.4645V7.83187C59.3477 6.8052 61.0962 5.69054 63.5704 5.69054C66.9397 5.69054 68.4667 7.562 68.4667 10.2489V20.6315H63.7563Z" fill="#1A1A1F"/>
<path fill-rule="evenodd" clip-rule="evenodd" d="M79.0845 16.8899V15.589C78.5953 14.8952 77.4936 14.5623 76.4527 14.5623C75.2275 14.5623 74.0945 15.1079 74.0945 16.2534C74.0945 17.3988 75.2275 17.9444 76.4527 17.9444C77.4936 17.9444 78.5953 17.5822 79.0845 16.8884V16.8899ZM79.0845 20.6299V19.1808C78.1656 20.2647 76.3888 20.9922 74.496 20.9922C72.23 20.9922 69.4138 19.4507 69.4138 16.1903C69.4138 12.6615 72.23 11.4867 74.496 11.4867C76.4527 11.4867 78.1954 12.1174 79.0845 13.2056V11.7566C79.0845 10.4894 77.9798 9.61376 76.087 9.61376C74.6179 9.61376 73.1474 10.1858 71.9519 11.1831L70.2093 7.95203C72.1081 6.35336 74.6462 5.68896 76.9122 5.68896C80.4599 5.68896 83.7935 6.9899 83.7935 11.516V20.6314H79.0845V20.6299Z" fill="#1A1A1F"/>
<path fill-rule="evenodd" clip-rule="evenodd" d="M92.8486 16.89C94.7132 16.89 96.1243 15.526 96.1243 13.326C96.1243 11.1553 94.7132 9.79134 92.8486 9.79134C91.8376 9.79134 90.6183 10.3355 90.0325 11.1201V15.5891C90.6183 16.3737 91.839 16.89 92.8486 16.89ZM85.322 20.63V0.498535H90.0325V7.7732C91.0814 6.44149 92.7018 5.67081 94.4114 5.69054C98.1107 5.69054 100.928 8.55934 100.928 13.326C100.928 18.276 98.0528 20.9923 94.4114 20.9923C92.7565 20.9923 91.2577 20.3279 90.0325 18.9404V20.6315H85.322V20.63Z" fill="#1A1A1F"/>
<path fill-rule="evenodd" clip-rule="evenodd" d="M101.876 0.498535H106.586V20.6315H101.876V0.498535Z" fill="#1A1A1F"/>
<path fill-rule="evenodd" clip-rule="evenodd" d="M115.368 9.43043C113.316 9.43043 112.522 10.639 112.334 11.6935H118.428C118.301 10.6668 117.54 9.43043 115.368 9.43043ZM107.532 13.3259C107.532 9.10336 110.743 5.68896 115.368 5.68896C119.741 5.68896 122.924 8.85697 122.924 13.807V14.8674H112.4C112.736 16.1624 113.961 17.2507 116.099 17.2507C117.14 17.2507 118.853 16.7975 119.712 16.0128L121.757 19.0606C120.292 20.3556 117.842 20.9922 115.582 20.9922C111.023 20.9922 107.532 18.0647 107.532 13.3259Z" fill="#1A1A1F"/>
</svg>
